<?xml version="1.0" standalone="no"?>
<!DOCTYPE svg PUBLIC "-//W3C//DTD SVG 20010904//EN"
 "http://www.w3.org/TR/2001/REC-SVG-20010904/DTD/svg10.dtd">
<svg version="1.0" xmlns="http://www.w3.org/2000/svg"
 width="700.000000pt" height="700.000000pt" viewBox="0 0 700.000000 700.000000"
 preserveAspectRatio="xMidYMid meet">
<metadata>
Created by potrace 1.14, written by Peter Selinger 2001-2017
</metadata>
<g transform="translate(0.000000,700.000000) scale(0.100000,-0.100000)"
fill="#000000" stroke="none">
<path d="M2257 6564 c-1 -1 -31 -5 -67 -8 -378 -39 -711 -311 -829 -676 -42
-131 -48 -192 -49 -530 0 -179 -1 -348 -1 -376 l-1 -51 -375 0 c-206 0 -378
-3 -382 -7 -4 -4 -8 -19 -9 -34 -1 -15 -5 -97 -8 -182 -4 -85 -9 -182 -11
-215 -2 -33 -7 -118 -10 -190 -4 -71 -8 -161 -10 -200 -2 -38 -6 -131 -10
-205 -3 -74 -8 -164 -10 -200 -2 -36 -6 -128 -10 -205 -3 -77 -8 -169 -10
-205 -2 -36 -7 -121 -10 -190 -4 -69 -8 -156 -10 -195 -2 -38 -6 -135 -10
-215 -3 -80 -8 -170 -10 -200 -2 -30 -7 -116 -10 -190 -3 -74 -8 -164 -10
-200 -2 -36 -7 -119 -10 -185 -5 -120 -11 -255 -20 -415 -3 -47 -7 -143 -11
-215 -3 -71 -7 -159 -9 -195 -11 -197 -18 -356 -19 -439 l-1 -95 3168 0 3169
-1 -7 105 c-4 58 -8 116 -10 130 -1 14 -6 66 -10 115 -4 50 -8 108 -10 130 -2
22 -6 78 -10 125 -3 47 -8 108 -10 135 -5 56 -13 168 -20 265 -3 36 -7 92 -10
125 -2 33 -7 96 -11 140 -3 44 -7 96 -9 115 -2 19 -6 82 -10 140 -3 58 -8 116
-10 130 -2 14 -6 66 -10 115 -3 50 -8 115 -10 145 -3 30 -7 87 -10 125 -2 39
-7 99 -10 135 -3 36 -7 94 -10 130 -6 90 -15 207 -20 260 -3 25 -7 86 -11 135
-6 82 -9 117 -13 138 0 4 -377 7 -836 7 l-835 0 -1 38 c-1 20 -2 53 -4 72 -2
19 -6 98 -10 175 -3 77 -8 167 -10 200 -2 33 -6 121 -9 195 -7 155 -15 312
-21 420 -3 41 -8 140 -11 220 -8 187 -9 198 -17 206 -3 4 -175 7 -382 7 -262
0 -375 4 -376 11 0 6 -1 182 -3 391 -3 412 -9 466 -64 604 -89 226 -262 420
-466 523 -55 28 -213 90 -226 88 -5 -1 -83 10 -115 16 -32 6 -186 5 -235 -1
-25 -3 -80 -15 -124 -26 l-78 -20 -83 21 c-64 16 -279 42 -288 34z m65 -223
c4 -1 -13 -20 -39 -43 -113 -105 -213 -261 -263 -408 -45 -133 -50 -193 -50
-596 l0 -370 -220 -1 -221 -1 1 367 c2 402 5 436 53 561 32 83 42 102 98 180
118 164 317 283 513 306 28 4 52 7 53 8 1 1 57 -1 75 -3z m737 -6 c104 -12
292 -87 346 -138 7 -7 34 -29 59 -51 79 -65 159 -182 204 -296 43 -108 49
-177 50 -563 l2 -364 -218 1 -217 1 -2 285 c-2 409 -4 463 -20 549 -37 199
-124 362 -279 521 l-64 66 37 -2 c21 -1 67 -5 102 -9z m-340 -120 c137 -90
243 -229 300 -390 39 -110 44 -168 44 -565 l0 -335 -436 -1 -437 -1 -1 26 c-3
150 1 696 6 731 18 126 69 254 140 350 79 107 263 251 302 236 7 -3 44 -26 82
-51z"/>
</g>
</svg>
